Suspiria

A newcomer to a fancy ballet academy gradually comes to realize that the staff of the school are actually a coven of witches bent on chaos and destruction. 

 
http://www.imdb.com/title/tt0076786/

7.4

Flykten från helvetet
	
	
Originaltitel:	Suspiria 	
Regissör:	Dario Argento
Utgivningsår:	1977
Längd:	98 min
	
Om Flykten från helvetet:
En amerikansk student anländer till Europa för att påbörja en balettutbildning. Allt eftersom tiden går förstår hon att något inte är som det ska. Det visar sig snart att skolan inte är vad den verkar vid första anblicken…



Skådespelare:
	Joan Bennett, Jessica Harper, Stefania Casini, Alida Valli, Flavio Bucci, Barbara Magnolfi, Susanna Javicoli, Eva Axén, Udo Kier
Manus:
	Dario Argento, Daria Nicolodi
Genre:
	Skräck, Fantasy, Mysterium
Alternativ titel:
	Dario Argento's Suspiria,
Produktionsland:
	Italien




Suspiria.DVDRIP.Xvid.1977.SWESUB. -Lindoff.avi
Format                           : AVI
Format/Info                      : Audio Video Interleave
File size                        : 700 MiB
Duration                         : 1h 34mn
Overall bit rate                 : 1 038 Kbps

Video
ID                               : 0
Format                           : MPEG-4 Visual
Format profile                   : Advanced Simple@L5
Format settings, BVOP            : Yes
Format settings, QPel            : No
Format settings, GMC             : No warppoints
Format settings, Matrix          : Default (MPEG)
Muxing mode                      : Packed bitstream
Codec ID                         : XVID
Codec ID/Hint                    : XviD
Duration                         : 1h 34mn
Bit rate                         : 900 Kbps
Width                            : 544 pixels
Height                           : 304 pixels
Display aspect ratio             : 16:9
Frame rate                       : 25.000 fps
Color space                      : YUV
Chroma subsampling               : 4:2:0
Bit depth                        : 8 bits
Scan type                        : Progressive
Bits/(Pixel*Frame)               : 0.218
Stream size                      : 607 MiB (87%)
Writing library                  : XviD 1.2.0.dev47 (UTC 2006-11-01)

Audio
ID                               : 1
Format                           : MPEG Audio
Format version                   : Version 1
Format profile                   : Layer 3
Mode                             : Joint stereo
Codec ID                         : 55
Codec ID/Hint                    : MP3
Duration                         : 1h 34mn
Bit rate mode                    : Constant
Bit rate                         : 128 Kbps
Channel(s)                       : 2 channels
Sampling rate                    : 48.0 KHz
Stream size                      : 86.3 MiB (12%)
Alignment                        : Aligned on interleaves
Interleave, duration             : 40 ms (1.00 video frame)
Interleave, preload duration     : 504 ms
Writing library                  : LAME3.97b
Encoding settings                : -m j -V 4 -q 2 -lowpass 17 -b 128

